solid OpenSCAD_Model
  facet normal 0.990685 0.13617 0
    outer loop
      vertex 0.425 0 0.014
      vertex 0.424073 0.00674492 -0.001
      vertex 0.424073 0.00674492 0.014
    endloop
  endfacet
  facet normal 0.990685 0.13617 0
    outer loop
      vertex 0.424073 0.00674492 -0.001
      vertex 0.425 0 0.014
      vertex 0.425 0 -0.001
    endloop
  endfacet
  facet normal 0.917212 0.398399 0
    outer loop
      vertex 0.424073 0.00674492 0.014
      vertex 0.42136 0.0129896 -0.001
      vertex 0.42136 0.0129896 0.014
    endloop
  endfacet
  facet normal 0.917212 0.398399 0
    outer loop
      vertex 0.42136 0.0129896 -0.001
      vertex 0.424073 0.00674492 0.014
      vertex 0.424073 0.00674492 -0.001
    endloop
  endfacet
  facet normal 0.775711 0.631088 0
    outer loop
      vertex 0.42136 0.0129896 0.014
      vertex 0.417064 0.0182709 -0.001
      vertex 0.417064 0.0182709 0.014
    endloop
  endfacet
  facet normal 0.775711 0.631088 0
    outer loop
      vertex 0.417064 0.0182709 -0.001
      vertex 0.42136 0.0129896 0.014
      vertex 0.42136 0.0129896 -0.001
    endloop
  endfacet
  facet normal 0.57668 0.81697 -0
    outer loop
      vertex 0.417064 0.0182709 -0.001
      vertex 0.411502 0.0221971 0.014
      vertex 0.417064 0.0182709 0.014
    endloop
  endfacet
  facet normal 0.57668 0.81697 0
    outer loop
      vertex 0.411502 0.0221971 0.014
      vertex 0.417064 0.0182709 -0.001
      vertex 0.411502 0.0221971 -0.001
    endloop
  endfacet
  facet normal 0.33488 0.942261 -0
    outer loop
      vertex 0.411502 0.0221971 -0.001
      vertex 0.405086 0.0244771 0.014
      vertex 0.411502 0.0221971 0.014
    endloop
  endfacet
  facet normal 0.33488 0.942261 0
    outer loop
      vertex 0.405086 0.0244771 0.014
      vertex 0.411502 0.0221971 -0.001
      vertex 0.405086 0.0244771 -0.001
    endloop
  endfacet
  facet normal 0.0682426 0.997669 -0
    outer loop
      vertex 0.405086 0.0244771 -0.001
      vertex 0.398294 0.0249417 0.014
      vertex 0.405086 0.0244771 0.014
    endloop
  endfacet
  facet normal 0.0682426 0.997669 0
    outer loop
      vertex 0.398294 0.0249417 0.014
      vertex 0.405086 0.0244771 -0.001
      vertex 0.398294 0.0249417 -0.001
    endloop
  endfacet
  facet normal -0.203456 0.979084 0
    outer loop
      vertex 0.398294 0.0249417 -0.001
      vertex 0.391628 0.0235565 0.014
      vertex 0.398294 0.0249417 0.014
    endloop
  endfacet
  facet normal -0.203456 0.979084 0
    outer loop
      vertex 0.391628 0.0235565 0.014
      vertex 0.398294 0.0249417 -0.001
      vertex 0.391628 0.0235565 -0.001
    endloop
  endfacet
  facet normal -0.460065 0.887885 0
    outer loop
      vertex 0.391628 0.0235565 -0.001
      vertex 0.385583 0.0204242 0.014
      vertex 0.391628 0.0235565 0.014
    endloop
  endfacet
  facet normal -0.460065 0.887885 0
    outer loop
      vertex 0.385583 0.0204242 0.014
      vertex 0.391628 0.0235565 -0.001
      vertex 0.385583 0.0204242 -0.001
    endloop
  endfacet
  facet normal -0.682554 0.730835 0
    outer loop
      vertex 0.385583 0.0204242 -0.001
      vertex 0.380607 0.0157772 0.014
      vertex 0.385583 0.0204242 0.014
    endloop
  endfacet
  facet normal -0.682554 0.730835 0
    outer loop
      vertex 0.380607 0.0157772 0.014
      vertex 0.385583 0.0204242 -0.001
      vertex 0.380607 0.0157772 -0.001
    endloop
  endfacet
  facet normal -0.854419 0.519585 0
    outer loop
      vertex 0.37707 0.00996003 -0.001
      vertex 0.380607 0.0157772 0.014
      vertex 0.380607 0.0157772 -0.001
    endloop
  endfacet
  facet normal -0.854419 0.519585 0
    outer loop
      vertex 0.380607 0.0157772 0.014
      vertex 0.37707 0.00996003 -0.001
      vertex 0.37707 0.00996003 0.014
    endloop
  endfacet
  facet normal -0.962917 0.269797 0
    outer loop
      vertex 0.375233 0.00340417 -0.001
      vertex 0.37707 0.00996003 0.014
      vertex 0.37707 0.00996003 -0.001
    endloop
  endfacet
  facet normal -0.962917 0.269797 0
    outer loop
      vertex 0.37707 0.00996003 0.014
      vertex 0.375233 0.00340417 -0.001
      vertex 0.375233 0.00340417 0.014
    endloop
  endfacet
  facet normal -1 0 0
    outer loop
      vertex 0.375233 -0.00340417 -0.001
      vertex 0.375233 0.00340417 0.014
      vertex 0.375233 0.00340417 -0.001
    endloop
  endfacet
  facet normal -1 -0 0
    outer loop
      vertex 0.375233 0.00340417 0.014
      vertex 0.375233 -0.00340417 -0.001
      vertex 0.375233 -0.00340417 0.014
    endloop
  endfacet
  facet normal -0.962917 -0.269797 0
    outer loop
      vertex 0.37707 -0.00996003 -0.001
      vertex 0.375233 -0.00340417 0.014
      vertex 0.375233 -0.00340417 -0.001
    endloop
  endfacet
  facet normal -0.962917 -0.269797 0
    outer loop
      vertex 0.375233 -0.00340417 0.014
      vertex 0.37707 -0.00996003 -0.001
      vertex 0.37707 -0.00996003 0.014
    endloop
  endfacet
  facet normal -0.854419 -0.519585 0
    outer loop
      vertex 0.380607 -0.0157772 -0.001
      vertex 0.37707 -0.00996003 0.014
      vertex 0.37707 -0.00996003 -0.001
    endloop
  endfacet
  facet normal -0.854419 -0.519585 0
    outer loop
      vertex 0.37707 -0.00996003 0.014
      vertex 0.380607 -0.0157772 -0.001
      vertex 0.380607 -0.0157772 0.014
    endloop
  endfacet
  facet normal -0.682554 -0.730835 0
    outer loop
      vertex 0.380607 -0.0157772 -0.001
      vertex 0.385583 -0.0204242 0.014
      vertex 0.380607 -0.0157772 0.014
    endloop
  endfacet
  facet normal -0.682554 -0.730835 -0
    outer loop
      vertex 0.385583 -0.0204242 0.014
      vertex 0.380607 -0.0157772 -0.001
      vertex 0.385583 -0.0204242 -0.001
    endloop
  endfacet
  facet normal -0.460065 -0.887885 0
    outer loop
      vertex 0.385583 -0.0204242 -0.001
      vertex 0.391628 -0.0235565 0.014
      vertex 0.385583 -0.0204242 0.014
    endloop
  endfacet
  facet normal -0.460065 -0.887885 -0
    outer loop
      vertex 0.391628 -0.0235565 0.014
      vertex 0.385583 -0.0204242 -0.001
      vertex 0.391628 -0.0235565 -0.001
    endloop
  endfacet
  facet normal -0.203456 -0.979084 0
    outer loop
      vertex 0.391628 -0.0235565 -0.001
      vertex 0.398294 -0.0249417 0.014
      vertex 0.391628 -0.0235565 0.014
    endloop
  endfacet
  facet normal -0.203456 -0.979084 -0
    outer loop
      vertex 0.398294 -0.0249417 0.014
      vertex 0.391628 -0.0235565 -0.001
      vertex 0.398294 -0.0249417 -0.001
    endloop
  endfacet
  facet normal 0.0682426 -0.997669 0
    outer loop
      vertex 0.398294 -0.0249417 -0.001
      vertex 0.405086 -0.0244771 0.014
      vertex 0.398294 -0.0249417 0.014
    endloop
  endfacet
  facet normal 0.0682426 -0.997669 0
    outer loop
      vertex 0.405086 -0.0244771 0.014
      vertex 0.398294 -0.0249417 -0.001
      vertex 0.405086 -0.0244771 -0.001
    endloop
  endfacet
  facet normal 0.33488 -0.942261 0
    outer loop
      vertex 0.405086 -0.0244771 -0.001
      vertex 0.411502 -0.0221971 0.014
      vertex 0.405086 -0.0244771 0.014
    endloop
  endfacet
  facet normal 0.33488 -0.942261 0
    outer loop
      vertex 0.411502 -0.0221971 0.014
      vertex 0.405086 -0.0244771 -0.001
      vertex 0.411502 -0.0221971 -0.001
    endloop
  endfacet
  facet normal 0.57668 -0.81697 0
    outer loop
      vertex 0.411502 -0.0221971 -0.001
      vertex 0.417064 -0.0182709 0.014
      vertex 0.411502 -0.0221971 0.014
    endloop
  endfacet
  facet normal 0.57668 -0.81697 0
    outer loop
      vertex 0.417064 -0.0182709 0.014
      vertex 0.411502 -0.0221971 -0.001
      vertex 0.417064 -0.0182709 -0.001
    endloop
  endfacet
  facet normal 0.775711 -0.631088 0
    outer loop
      vertex 0.417064 -0.0182709 0.014
      vertex 0.42136 -0.0129896 -0.001
      vertex 0.42136 -0.0129896 0.014
    endloop
  endfacet
  facet normal 0.775711 -0.631088 0
    outer loop
      vertex 0.42136 -0.0129896 -0.001
      vertex 0.417064 -0.0182709 0.014
      vertex 0.417064 -0.0182709 -0.001
    endloop
  endfacet
  facet normal 0.917212 -0.398399 0
    outer loop
      vertex 0.42136 -0.0129896 0.014
      vertex 0.424073 -0.00674492 -0.001
      vertex 0.424073 -0.00674492 0.014
    endloop
  endfacet
  facet normal 0.917212 -0.398399 0
    outer loop
      vertex 0.424073 -0.00674492 -0.001
      vertex 0.42136 -0.0129896 0.014
      vertex 0.42136 -0.0129896 -0.001
    endloop
  endfacet
  facet normal 0.990685 -0.13617 0
    outer loop
      vertex 0.424073 -0.00674492 0.014
      vertex 0.425 0 -0.001
      vertex 0.425 0 0.014
    endloop
  endfacet
  facet normal 0.990685 -0.13617 0
    outer loop
      vertex 0.425 0 -0.001
      vertex 0.424073 -0.00674492 0.014
      vertex 0.424073 -0.00674492 -0.001
    endloop
  endfacet
  facet normal 0 0 -1
    outer loop
      vertex 0.424073 -0.00674492 -0.001
      vertex 0.424073 0.00674492 -0.001
      vertex 0.425 0 -0.001
    endloop
  endfacet
  facet normal 0 0 -1
    outer loop
      vertex 0.42136 -0.0129896 -0.001
      vertex 0.424073 0.00674492 -0.001
      vertex 0.424073 -0.00674492 -0.001
    endloop
  endfacet
  facet normal 0 0 -1
    outer loop
      vertex 0.42136 -0.0129896 -0.001
      vertex 0.42136 0.0129896 -0.001
      vertex 0.424073 0.00674492 -0.001
    endloop
  endfacet
  facet normal 0 0 -1
    outer loop
      vertex 0.417064 -0.0182709 -0.001
      vertex 0.42136 0.0129896 -0.001
      vertex 0.42136 -0.0129896 -0.001
    endloop
  endfacet
  facet normal 0 0 -1
    outer loop
      vertex 0.417064 -0.0182709 -0.001
      vertex 0.417064 0.0182709 -0.001
      vertex 0.42136 0.0129896 -0.001
    endloop
  endfacet
  facet normal 0 0 -1
    outer loop
      vertex 0.411502 -0.0221971 -0.001
      vertex 0.417064 0.0182709 -0.001
      vertex 0.417064 -0.0182709 -0.001
    endloop
  endfacet
  facet normal 0 0 -1
    outer loop
      vertex 0.411502 -0.0221971 -0.001
      vertex 0.411502 0.0221971 -0.001
      vertex 0.417064 0.0182709 -0.001
    endloop
  endfacet
  facet normal 0 0 -1
    outer loop
      vertex 0.405086 -0.0244771 -0.001
      vertex 0.411502 0.0221971 -0.001
      vertex 0.411502 -0.0221971 -0.001
    endloop
  endfacet
  facet normal 0 0 -1
    outer loop
      vertex 0.405086 -0.0244771 -0.001
      vertex 0.405086 0.0244771 -0.001
      vertex 0.411502 0.0221971 -0.001
    endloop
  endfacet
  facet normal 0 0 -1
    outer loop
      vertex 0.398294 -0.0249417 -0.001
      vertex 0.405086 0.0244771 -0.001
      vertex 0.405086 -0.0244771 -0.001
    endloop
  endfacet
  facet normal 0 0 -1
    outer loop
      vertex 0.398294 -0.0249417 -0.001
      vertex 0.398294 0.0249417 -0.001
      vertex 0.405086 0.0244771 -0.001
    endloop
  endfacet
  facet normal 0 0 -1
    outer loop
      vertex 0.391628 -0.0235565 -0.001
      vertex 0.398294 0.0249417 -0.001
      vertex 0.398294 -0.0249417 -0.001
    endloop
  endfacet
  facet normal 0 0 -1
    outer loop
      vertex 0.391628 -0.0235565 -0.001
      vertex 0.391628 0.0235565 -0.001
      vertex 0.398294 0.0249417 -0.001
    endloop
  endfacet
  facet normal 0 0 -1
    outer loop
      vertex 0.385583 -0.0204242 -0.001
      vertex 0.391628 0.0235565 -0.001
      vertex 0.391628 -0.0235565 -0.001
    endloop
  endfacet
  facet normal 0 0 -1
    outer loop
      vertex 0.385583 -0.0204242 -0.001
      vertex 0.385583 0.0204242 -0.001
      vertex 0.391628 0.0235565 -0.001
    endloop
  endfacet
  facet normal 0 0 -1
    outer loop
      vertex 0.380607 -0.0157772 -0.001
      vertex 0.385583 0.0204242 -0.001
      vertex 0.385583 -0.0204242 -0.001
    endloop
  endfacet
  facet normal 0 0 -1
    outer loop
      vertex 0.380607 -0.0157772 -0.001
      vertex 0.380607 0.0157772 -0.001
      vertex 0.385583 0.0204242 -0.001
    endloop
  endfacet
  facet normal 0 0 -1
    outer loop
      vertex 0.37707 -0.00996003 -0.001
      vertex 0.380607 0.0157772 -0.001
      vertex 0.380607 -0.0157772 -0.001
    endloop
  endfacet
  facet normal 0 0 -1
    outer loop
      vertex 0.37707 -0.00996003 -0.001
      vertex 0.37707 0.00996003 -0.001
      vertex 0.380607 0.0157772 -0.001
    endloop
  endfacet
  facet normal 0 0 -1
    outer loop
      vertex 0.375233 -0.00340417 -0.001
      vertex 0.37707 0.00996003 -0.001
      vertex 0.37707 -0.00996003 -0.001
    endloop
  endfacet
  facet normal 0 0 -1
    outer loop
      vertex 0.37707 0.00996003 -0.001
      vertex 0.375233 -0.00340417 -0.001
      vertex 0.375233 0.00340417 -0.001
    endloop
  endfacet
  facet normal 0 0 1
    outer loop
      vertex 0.424073 0.00674492 0.014
      vertex 0.424073 -0.00674492 0.014
      vertex 0.425 0 0.014
    endloop
  endfacet
  facet normal 0 0 1
    outer loop
      vertex 0.42136 0.0129896 0.014
      vertex 0.424073 -0.00674492 0.014
      vertex 0.424073 0.00674492 0.014
    endloop
  endfacet
  facet normal 0 0 1
    outer loop
      vertex 0.42136 0.0129896 0.014
      vertex 0.42136 -0.0129896 0.014
      vertex 0.424073 -0.00674492 0.014
    endloop
  endfacet
  facet normal 0 0 1
    outer loop
      vertex 0.417064 0.0182709 0.014
      vertex 0.42136 -0.0129896 0.014
      vertex 0.42136 0.0129896 0.014
    endloop
  endfacet
  facet normal 0 0 1
    outer loop
      vertex 0.417064 0.0182709 0.014
      vertex 0.417064 -0.0182709 0.014
      vertex 0.42136 -0.0129896 0.014
    endloop
  endfacet
  facet normal 0 0 1
    outer loop
      vertex 0.411502 0.0221971 0.014
      vertex 0.417064 -0.0182709 0.014
      vertex 0.417064 0.0182709 0.014
    endloop
  endfacet
  facet normal 0 0 1
    outer loop
      vertex 0.411502 0.0221971 0.014
      vertex 0.411502 -0.0221971 0.014
      vertex 0.417064 -0.0182709 0.014
    endloop
  endfacet
  facet normal 0 0 1
    outer loop
      vertex 0.405086 0.0244771 0.014
      vertex 0.411502 -0.0221971 0.014
      vertex 0.411502 0.0221971 0.014
    endloop
  endfacet
  facet normal 0 0 1
    outer loop
      vertex 0.405086 0.0244771 0.014
      vertex 0.405086 -0.0244771 0.014
      vertex 0.411502 -0.0221971 0.014
    endloop
  endfacet
  facet normal 0 0 1
    outer loop
      vertex 0.398294 0.0249417 0.014
      vertex 0.405086 -0.0244771 0.014
      vertex 0.405086 0.0244771 0.014
    endloop
  endfacet
  facet normal 0 0 1
    outer loop
      vertex 0.398294 0.0249417 0.014
      vertex 0.398294 -0.0249417 0.014
      vertex 0.405086 -0.0244771 0.014
    endloop
  endfacet
  facet normal -0 0 1
    outer loop
      vertex 0.391628 0.0235565 0.014
      vertex 0.398294 -0.0249417 0.014
      vertex 0.398294 0.0249417 0.014
    endloop
  endfacet
  facet normal 0 0 1
    outer loop
      vertex 0.391628 0.0235565 0.014
      vertex 0.391628 -0.0235565 0.014
      vertex 0.398294 -0.0249417 0.014
    endloop
  endfacet
  facet normal -0 0 1
    outer loop
      vertex 0.385583 0.0204242 0.014
      vertex 0.391628 -0.0235565 0.014
      vertex 0.391628 0.0235565 0.014
    endloop
  endfacet
  facet normal 0 0 1
    outer loop
      vertex 0.385583 0.0204242 0.014
      vertex 0.385583 -0.0204242 0.014
      vertex 0.391628 -0.0235565 0.014
    endloop
  endfacet
  facet normal -0 0 1
    outer loop
      vertex 0.380607 0.0157772 0.014
      vertex 0.385583 -0.0204242 0.014
      vertex 0.385583 0.0204242 0.014
    endloop
  endfacet
  facet normal 0 0 1
    outer loop
      vertex 0.380607 0.0157772 0.014
      vertex 0.380607 -0.0157772 0.014
      vertex 0.385583 -0.0204242 0.014
    endloop
  endfacet
  facet normal -0 0 1
    outer loop
      vertex 0.37707 0.00996003 0.014
      vertex 0.380607 -0.0157772 0.014
      vertex 0.380607 0.0157772 0.014
    endloop
  endfacet
  facet normal 0 0 1
    outer loop
      vertex 0.37707 0.00996003 0.014
      vertex 0.37707 -0.00996003 0.014
      vertex 0.380607 -0.0157772 0.014
    endloop
  endfacet
  facet normal -0 0 1
    outer loop
      vertex 0.375233 0.00340417 0.014
      vertex 0.37707 -0.00996003 0.014
      vertex 0.37707 0.00996003 0.014
    endloop
  endfacet
  facet normal 0 0 1
    outer loop
      vertex 0.37707 -0.00996003 0.014
      vertex 0.375233 0.00340417 0.014
      vertex 0.375233 -0.00340417 0.014
    endloop
  endfacet
endsolid OpenSCAD_Model
